<svg xmlns="http://www.w3.org/2000/svg" viewBox="0 0 32 32" fill="none">
  <defs>
    <linearGradient id="sg" x1="0" y1="0" x2="0" y2="1">
      <stop offset="0%" stop-color="#10B981"/>
      <stop offset="100%" stop-color="#047857"/>
    </linearGradient>
    <linearGradient id="gg" x1="0" y1="0" x2="1" y2="1">
      <stop offset="0%" stop-color="#FBBF24"/>
      <stop offset="100%" stop-color="#F59E0B"/>
    </linearGradient>
  </defs>
  <!-- Shield -->
  <path d="M16 1.5 C10.5 1.5 4.5 3.5 4.5 3.5 L4.5 15 C4.5 21.5 10 28 16 30.5 C22 28 27.5 21.5 27.5 15 L27.5 3.5 C27.5 3.5 21.5 1.5 16 1.5Z" fill="url(#sg)"/>
  <!-- Shield border -->
  <path d="M16 1.5 C10.5 1.5 4.5 3.5 4.5 3.5 L4.5 15 C4.5 21.5 10 28 16 30.5 C22 28 27.5 21.5 27.5 15 L27.5 3.5 C27.5 3.5 21.5 1.5 16 1.5Z" fill="none" stroke="#059669" stroke-width="0.5"/>
  <!-- Football -->
  <circle cx="16" cy="12.5" r="6" fill="white"/>
  <!-- Center pentagon -->
  <polygon points="16,10.5 17.5,11.3 17,12.8 15,12.8 14.5,11.3" fill="#1a1a2e" opacity="0.8"/>
  <!-- AI ribbon -->
  <rect x="8" y="21" width="16" height="5" rx="1" fill="url(#gg)"/>
  <text x="16" y="25" text-anchor="middle" font-family="Arial,sans-serif" font-size="4" font-weight="800" fill="#1a1a2e">AI</text>
  <!-- Tiny circuit dots -->
  <circle cx="7" cy="10" r="1" fill="#6EE7B7" opacity="0.7"/>
  <circle cx="25" cy="10" r="1" fill="#6EE7B7" opacity="0.7"/>
  <circle cx="7" cy="16" r="1" fill="#6EE7B7" opacity="0.7"/>
  <circle cx="25" cy="16" r="1" fill="#6EE7B7" opacity="0.7"/>
</svg>
